<?xml version="1.0" encoding="utf-8"?>

<svg version="1.1" id="Icons" xmlns="http://www.w3.org/2000/svg" xmlns:xlink="http://www.w3.org/1999/xlink" x="0px" y="0px"
	 viewBox="0 0 32 32" style="enable-background:new 0 0 32 32;" xml:space="preserve">
<style type="text/css">
	.st0{fill:none;stroke:#000000;stroke-width:2;stroke-linecap:round;stroke-linejoin:round;stroke-miterlimit:10;}
	.st1{fill:none;stroke:#000000;stroke-width:2;stroke-linejoin:round;stroke-miterlimit:10;}
</style>
<circle class="st0" cx="16" cy="18" r="10"/>
<path class="st0" d="M6.3,15.7C4.4,15,3,13.2,3,11c0-2.8,2.2-5,5-5c1.9,0,3.6,1.1,4.4,2.7"/>
<path class="st0" d="M19.6,8.7C20.4,7.1,22.1,6,24,6c2.8,0,5,2.2,5,5c0,2.2-1.4,4-3.3,4.7"/>
<ellipse class="st0" cx="16" cy="23" rx="6" ry="5"/>
<line class="st0" x1="16" y1="20" x2="16" y2="18"/>
<line class="st0" x1="12" y1="16" x2="12" y2="17"/>
<line class="st0" x1="20" y1="16" x2="20" y2="17"/>
</svg>
